<?xml version="1.0" encoding="UTF-8" standalone="no"?>
<!DOCTYPE svg PUBLIC "-//W3C//DTD SVG 1.1//EN"
 "http://www.w3.org/Graphics/SVG/1.1/DTD/svg11.dtd">
<!-- Generated by graphviz version 2.47.0 (20210316.0004)
 -->
<!-- Title: dependencies Pages: 1 -->
<svg width="600pt" height="211pt"
 viewBox="0.00 0.00 600.00 211.00" xmlns="http://www.w3.org/2000/svg" xmlns:xlink="http://www.w3.org/1999/xlink">
<g id="graph0" class="graph" transform="scale(1 1) rotate(0) translate(4 207)">
<title>dependencies</title>
<polygon fill="white" stroke="transparent" points="-4,4 -4,-207 596,-207 596,4 -4,4"/>
<text text-anchor="start" x="275.01" y="-42.4" font-family="Times-12" font-weight="bold" font-size="14.00">Legend</text>
<polygon fill="#ffffb3" stroke="transparent" points="62,-10 62,-30 82,-30 82,-10 62,-10"/>
<text text-anchor="start" x="85.63" y="-15.4" font-family="Times-12" font-size="14.00"> &#160;Declarations</text>
<polygon fill="#8dd3c7" stroke="transparent" points="175,-10 175,-30 195,-30 195,-10 175,-10"/>
<text text-anchor="start" x="198.73" y="-15.4" font-family="Times-12" font-size="14.00"> &#160;Module</text>
<polygon fill="#80b1d3" stroke="transparent" points="261,-10 261,-30 281,-30 281,-10 261,-10"/>
<text text-anchor="start" x="284.78" y="-15.4" font-family="Times-12" font-size="14.00"> &#160;Bootstrap</text>
<polygon fill="#fdb462" stroke="transparent" points="358,-10 358,-30 378,-30 378,-10 358,-10"/>
<text text-anchor="start" x="381.67" y="-15.4" font-family="Times-12" font-size="14.00"> &#160;Providers</text>
<polygon fill="#fb8072" stroke="transparent" points="454,-10 454,-30 474,-30 474,-10 454,-10"/>
<text text-anchor="start" x="477.73" y="-15.4" font-family="Times-12" font-size="14.00"> &#160;Exports</text>
<g id="clust1" class="cluster">
<title>cluster_PostModule</title>
<polygon fill="none" stroke="black" stroke-dasharray="1,5" points="8,-70 8,-195 584,-195 584,-70 8,-70"/>
</g>
<g id="clust3" class="cluster">
<title>cluster_PostModule_imports</title>
<polygon fill="none" stroke="black" points="352,-78 352,-130 576,-130 576,-78 352,-78"/>
</g>
<g id="clust6" class="cluster">
<title>cluster_PostModule_providers</title>
<polygon fill="none" stroke="black" points="16,-78 16,-130 344,-130 344,-78 16,-78"/>
</g>
<!-- EmailModule -->
<g id="node1" class="node">
<title>EmailModule</title>
<polygon fill="#8dd3c7" stroke="black" points="568.49,-122 565.49,-126 544.49,-126 541.49,-122 475.51,-122 475.51,-86 568.49,-86 568.49,-122"/>
<text text-anchor="middle" x="522" y="-99.8" font-family="Times,serif" font-size="14.00">EmailModule</text>
</g>
<!-- PostModule -->
<g id="node3" class="node">
<title>PostModule</title>
<polygon fill="#8dd3c7" stroke="black" points="370.67,-187 367.67,-191 346.67,-191 343.67,-187 287.33,-187 287.33,-151 370.67,-151 370.67,-187"/>
<text text-anchor="middle" x="329" y="-164.8" font-family="Times,serif" font-size="14.00">PostModule</text>
</g>
<!-- EmailModule&#45;&gt;PostModule -->
<g id="edge1" class="edge">
<title>EmailModule&#45;&gt;PostModule</title>
<path fill="none" stroke="black" d="M522,-122.11C522,-141.34 522,-169 522,-169 522,-169 380.88,-169 380.88,-169"/>
<polygon fill="black" stroke="black" points="380.88,-165.5 370.88,-169 380.88,-172.5 380.88,-165.5"/>
</g>
<!-- SearchModule -->
<g id="node2" class="node">
<title>SearchModule</title>
<polygon fill="#8dd3c7" stroke="black" points="457.64,-122 454.64,-126 433.64,-126 430.64,-122 360.36,-122 360.36,-86 457.64,-86 457.64,-122"/>
<text text-anchor="middle" x="409" y="-99.8" font-family="Times,serif" font-size="14.00">SearchModule</text>
</g>
<!-- SearchModule&#45;&gt;PostModule -->
<g id="edge2" class="edge">
<title>SearchModule&#45;&gt;PostModule</title>
<path fill="none" stroke="black" d="M365.51,-122.11C365.51,-122.11 365.51,-140.99 365.51,-140.99"/>
<polygon fill="black" stroke="black" points="362.01,-140.99 365.51,-150.99 369.01,-140.99 362.01,-140.99"/>
</g>
<!-- PostsSearchService -->
<g id="node4" class="node">
<title>PostsSearchService</title>
<ellipse fill="#fdb462" stroke="black" cx="249" cy="-104" rx="86.81" ry="18"/>
<text text-anchor="middle" x="249" y="-99.8" font-family="Times,serif" font-size="14.00">PostsSearchService</text>
</g>
<!-- PostsSearchService&#45;&gt;PostModule -->
<g id="edge3" class="edge">
<title>PostsSearchService&#45;&gt;PostModule</title>
<path fill="none" stroke="black" d="M311.41,-116.53C311.41,-116.53 311.41,-140.85 311.41,-140.85"/>
<polygon fill="black" stroke="black" points="307.91,-140.85 311.41,-150.85 314.91,-140.85 307.91,-140.85"/>
</g>
<!-- PostsService -->
<g id="node5" class="node">
<title>PostsService</title>
<ellipse fill="#fdb462" stroke="black" cx="84" cy="-104" rx="60.27" ry="18"/>
<text text-anchor="middle" x="84" y="-99.8" font-family="Times,serif" font-size="14.00">PostsService</text>
</g>
<!-- PostsService&#45;&gt;PostModule -->
<g id="edge4" class="edge">
<title>PostsService&#45;&gt;PostModule</title>
<path fill="none" stroke="black" d="M84,-122.11C84,-141.34 84,-169 84,-169 84,-169 277.16,-169 277.16,-169"/>
<polygon fill="black" stroke="black" points="277.16,-172.5 287.16,-169 277.16,-165.5 277.16,-172.5"/>
</g>
</g>
</svg>
