<?xml version="1.0" encoding="UTF-8" standalone="no"?>
<!DOCTYPE svg PUBLIC "-//W3C//DTD SVG 1.1//EN"
 "http://www.w3.org/Graphics/SVG/1.1/DTD/svg11.dtd">
<!-- Generated by graphviz version 2.47.0 (20210316.0004)
 -->
<!-- Title: dependencies Pages: 1 -->
<svg width="766pt" height="211pt"
 viewBox="0.00 0.00 766.00 211.00" xmlns="http://www.w3.org/2000/svg" xmlns:xlink="http://www.w3.org/1999/xlink">
<g id="graph0" class="graph" transform="scale(1 1) rotate(0) translate(4 207)">
<title>dependencies</title>
<polygon fill="white" stroke="transparent" points="-4,4 -4,-207 762,-207 762,4 -4,4"/>
<text text-anchor="start" x="358.01" y="-42.4" font-family="Times-12" font-weight="bold" font-size="14.00">Legend</text>
<polygon fill="#ffffb3" stroke="transparent" points="145,-10 145,-30 165,-30 165,-10 145,-10"/>
<text text-anchor="start" x="168.63" y="-15.4" font-family="Times-12" font-size="14.00"> &#160;Declarations</text>
<polygon fill="#8dd3c7" stroke="transparent" points="258,-10 258,-30 278,-30 278,-10 258,-10"/>
<text text-anchor="start" x="281.73" y="-15.4" font-family="Times-12" font-size="14.00"> &#160;Module</text>
<polygon fill="#80b1d3" stroke="transparent" points="344,-10 344,-30 364,-30 364,-10 344,-10"/>
<text text-anchor="start" x="367.78" y="-15.4" font-family="Times-12" font-size="14.00"> &#160;Bootstrap</text>
<polygon fill="#fdb462" stroke="transparent" points="441,-10 441,-30 461,-30 461,-10 441,-10"/>
<text text-anchor="start" x="464.67" y="-15.4" font-family="Times-12" font-size="14.00"> &#160;Providers</text>
<polygon fill="#fb8072" stroke="transparent" points="537,-10 537,-30 557,-30 557,-10 537,-10"/>
<text text-anchor="start" x="560.73" y="-15.4" font-family="Times-12" font-size="14.00"> &#160;Exports</text>
<g id="clust1" class="cluster">
<title>cluster_AppModule</title>
<polygon fill="none" stroke="black" stroke-dasharray="1,5" points="8,-70 8,-195 750,-195 750,-70 8,-70"/>
</g>
<g id="clust3" class="cluster">
<title>cluster_AppModule_imports</title>
<polygon fill="none" stroke="black" points="16,-78 16,-130 742,-130 742,-78 16,-78"/>
</g>
<!-- AuthenticationModule -->
<g id="node1" class="node">
<title>AuthenticationModule</title>
<polygon fill="#8dd3c7" stroke="black" points="734.25,-122 731.25,-126 710.25,-126 707.25,-122 591.75,-122 591.75,-86 734.25,-86 734.25,-122"/>
<text text-anchor="middle" x="663" y="-99.8" font-family="Times,serif" font-size="14.00">AuthenticationModule</text>
</g>
<!-- AppModule -->
<g id="node7" class="node">
<title>AppModule</title>
<polygon fill="#8dd3c7" stroke="black" points="379.66,-187 376.66,-191 355.66,-191 352.66,-187 296.34,-187 296.34,-151 379.66,-151 379.66,-187"/>
<text text-anchor="middle" x="338" y="-164.8" font-family="Times,serif" font-size="14.00">AppModule</text>
</g>
<!-- AuthenticationModule&#45;&gt;AppModule -->
<g id="edge1" class="edge">
<title>AuthenticationModule&#45;&gt;AppModule</title>
<path fill="none" stroke="black" d="M663,-122.28C663,-143.32 663,-175 663,-175 663,-175 389.82,-175 389.82,-175"/>
<polygon fill="black" stroke="black" points="389.82,-171.5 379.82,-175 389.82,-178.5 389.82,-171.5"/>
</g>
<!-- DatabaseModule -->
<g id="node2" class="node">
<title>DatabaseModule</title>
<polygon fill="#8dd3c7" stroke="black" points="573.35,-122 570.35,-126 549.35,-126 546.35,-122 462.65,-122 462.65,-86 573.35,-86 573.35,-122"/>
<text text-anchor="middle" x="518" y="-99.8" font-family="Times,serif" font-size="14.00">DatabaseModule</text>
</g>
<!-- DatabaseModule&#45;&gt;AppModule -->
<g id="edge2" class="edge">
<title>DatabaseModule&#45;&gt;AppModule</title>
<path fill="none" stroke="black" d="M518,-122.02C518,-139.37 518,-163 518,-163 518,-163 389.75,-163 389.75,-163"/>
<polygon fill="black" stroke="black" points="389.75,-159.5 379.75,-163 389.75,-166.5 389.75,-159.5"/>
</g>
<!-- HealthModule -->
<g id="node3" class="node">
<title>HealthModule</title>
<polygon fill="#8dd3c7" stroke="black" points="444.37,-122 441.37,-126 420.37,-126 417.37,-122 347.63,-122 347.63,-86 444.37,-86 444.37,-122"/>
<text text-anchor="middle" x="396" y="-99.8" font-family="Times,serif" font-size="14.00">HealthModule</text>
</g>
<!-- HealthModule&#45;&gt;AppModule -->
<g id="edge3" class="edge">
<title>HealthModule&#45;&gt;AppModule</title>
<path fill="none" stroke="black" d="M363.7,-122.11C363.7,-122.11 363.7,-140.99 363.7,-140.99"/>
<polygon fill="black" stroke="black" points="360.2,-140.99 363.7,-150.99 367.2,-140.99 360.2,-140.99"/>
</g>
<!-- LoggerModule -->
<g id="node4" class="node">
<title>LoggerModule</title>
<polygon fill="#8dd3c7" stroke="black" points="329.98,-122 326.98,-126 305.98,-126 302.98,-122 230.02,-122 230.02,-86 329.98,-86 329.98,-122"/>
<text text-anchor="middle" x="280" y="-99.8" font-family="Times,serif" font-size="14.00">LoggerModule</text>
</g>
<!-- LoggerModule&#45;&gt;AppModule -->
<g id="edge4" class="edge">
<title>LoggerModule&#45;&gt;AppModule</title>
<path fill="none" stroke="black" d="M313.08,-122.11C313.08,-122.11 313.08,-140.99 313.08,-140.99"/>
<polygon fill="black" stroke="black" points="309.58,-140.99 313.08,-150.99 316.58,-140.99 309.58,-140.99"/>
</g>
<!-- PostModule -->
<g id="node5" class="node">
<title>PostModule</title>
<polygon fill="#8dd3c7" stroke="black" points="211.67,-122 208.67,-126 187.67,-126 184.67,-122 128.33,-122 128.33,-86 211.67,-86 211.67,-122"/>
<text text-anchor="middle" x="170" y="-99.8" font-family="Times,serif" font-size="14.00">PostModule</text>
</g>
<!-- PostModule&#45;&gt;AppModule -->
<g id="edge5" class="edge">
<title>PostModule&#45;&gt;AppModule</title>
<path fill="none" stroke="black" d="M170,-122.02C170,-139.37 170,-163 170,-163 170,-163 286.04,-163 286.04,-163"/>
<polygon fill="black" stroke="black" points="286.04,-166.5 296.04,-163 286.04,-159.5 286.04,-166.5"/>
</g>
<!-- UserModule -->
<g id="node6" class="node">
<title>UserModule</title>
<polygon fill="#8dd3c7" stroke="black" points="109.98,-122 106.98,-126 85.98,-126 82.98,-122 24.02,-122 24.02,-86 109.98,-86 109.98,-122"/>
<text text-anchor="middle" x="67" y="-99.8" font-family="Times,serif" font-size="14.00">UserModule</text>
</g>
<!-- UserModule&#45;&gt;AppModule -->
<g id="edge6" class="edge">
<title>UserModule&#45;&gt;AppModule</title>
<path fill="none" stroke="black" d="M67,-122.28C67,-143.32 67,-175 67,-175 67,-175 286.25,-175 286.25,-175"/>
<polygon fill="black" stroke="black" points="286.25,-178.5 296.25,-175 286.25,-171.5 286.25,-178.5"/>
</g>
</g>
</svg>
