<?xml version="1.0" encoding="UTF-8" standalone="no"?>
<!DOCTYPE svg PUBLIC "-//W3C//DTD SVG 1.1//EN"
 "http://www.w3.org/Graphics/SVG/1.1/DTD/svg11.dtd">
<!-- Generated by graphviz version 2.47.0 (20210316.0004)
 -->
<!-- Title: dependencies Pages: 1 -->
<svg width="504pt" height="284pt"
 viewBox="0.00 0.00 504.00 284.00" xmlns="http://www.w3.org/2000/svg" xmlns:xlink="http://www.w3.org/1999/xlink">
<g id="graph0" class="graph" transform="scale(1 1) rotate(0) translate(4 280)">
<title>dependencies</title>
<polygon fill="white" stroke="transparent" points="-4,4 -4,-280 500,-280 500,4 -4,4"/>
<text text-anchor="start" x="227.01" y="-42.4" font-family="Times-12" font-weight="bold" font-size="14.00">Legend</text>
<polygon fill="#ffffb3" stroke="transparent" points="14,-10 14,-30 34,-30 34,-10 14,-10"/>
<text text-anchor="start" x="37.63" y="-15.4" font-family="Times-12" font-size="14.00"> &#160;Declarations</text>
<polygon fill="#8dd3c7" stroke="transparent" points="127,-10 127,-30 147,-30 147,-10 127,-10"/>
<text text-anchor="start" x="150.73" y="-15.4" font-family="Times-12" font-size="14.00"> &#160;Module</text>
<polygon fill="#80b1d3" stroke="transparent" points="213,-10 213,-30 233,-30 233,-10 213,-10"/>
<text text-anchor="start" x="236.78" y="-15.4" font-family="Times-12" font-size="14.00"> &#160;Bootstrap</text>
<polygon fill="#fdb462" stroke="transparent" points="310,-10 310,-30 330,-30 330,-10 310,-10"/>
<text text-anchor="start" x="333.67" y="-15.4" font-family="Times-12" font-size="14.00"> &#160;Providers</text>
<polygon fill="#fb8072" stroke="transparent" points="406,-10 406,-30 426,-30 426,-10 406,-10"/>
<text text-anchor="start" x="429.73" y="-15.4" font-family="Times-12" font-size="14.00"> &#160;Exports</text>
<g id="clust1" class="cluster">
<title>cluster_FileModule</title>
<polygon fill="none" stroke="black" stroke-dasharray="1,5" points="61,-70 61,-268 435,-268 435,-70 61,-70"/>
</g>
<g id="clust4" class="cluster">
<title>cluster_FileModule_exports</title>
<polygon fill="none" stroke="black" points="95,-208 95,-260 371,-260 371,-208 95,-208"/>
</g>
<g id="clust6" class="cluster">
<title>cluster_FileModule_providers</title>
<polygon fill="none" stroke="black" points="69,-78 69,-130 427,-130 427,-78 69,-78"/>
</g>
<!-- PrivateFileService  -->
<g id="node1" class="node">
<title>PrivateFileService </title>
<polygon fill="#fb8072" stroke="black" points="363.41,-252 240.59,-252 240.59,-216 363.41,-216 363.41,-252"/>
<text text-anchor="middle" x="302" y="-229.8" font-family="Times,serif" font-size="14.00">PrivateFileService </text>
</g>
<!-- PublicFileService  -->
<g id="node2" class="node">
<title>PublicFileService </title>
<polygon fill="#fb8072" stroke="black" points="222.53,-252 103.47,-252 103.47,-216 222.53,-216 222.53,-252"/>
<text text-anchor="middle" x="163" y="-229.8" font-family="Times,serif" font-size="14.00">PublicFileService </text>
</g>
<!-- FileModule -->
<g id="node3" class="node">
<title>FileModule</title>
<polygon fill="#8dd3c7" stroke="black" points="228.83,-187 225.83,-191 204.83,-191 201.83,-187 147.17,-187 147.17,-151 228.83,-151 228.83,-187"/>
<text text-anchor="middle" x="188" y="-164.8" font-family="Times,serif" font-size="14.00">FileModule</text>
</g>
<!-- FileModule&#45;&gt;PrivateFileService  -->
<g id="edge1" class="edge">
<title>FileModule&#45;&gt;PrivateFileService </title>
<path fill="none" stroke="black" stroke-dasharray="5,2" d="M228.73,-175C239.21,-175 247.59,-175 247.59,-175 247.59,-175 247.59,-205.98 247.59,-205.98"/>
<polygon fill="black" stroke="black" points="244.09,-205.98 247.59,-215.98 251.09,-205.98 244.09,-205.98"/>
</g>
<!-- FileModule&#45;&gt;PublicFileService  -->
<g id="edge2" class="edge">
<title>FileModule&#45;&gt;PublicFileService </title>
<path fill="none" stroke="black" stroke-dasharray="5,2" d="M184.93,-187.11C184.93,-187.11 184.93,-205.99 184.93,-205.99"/>
<polygon fill="black" stroke="black" points="181.43,-205.99 184.93,-215.99 188.43,-205.99 181.43,-205.99"/>
</g>
<!-- PrivateFileService -->
<g id="node4" class="node">
<title>PrivateFileService</title>
<ellipse fill="#fdb462" stroke="black" cx="337" cy="-104" rx="82.23" ry="18"/>
<text text-anchor="middle" x="337" y="-99.8" font-family="Times,serif" font-size="14.00">PrivateFileService</text>
</g>
<!-- PrivateFileService&#45;&gt;FileModule -->
<g id="edge3" class="edge">
<title>PrivateFileService&#45;&gt;FileModule</title>
<path fill="none" stroke="black" d="M309.04,-121.07C309.04,-138.49 309.04,-163 309.04,-163 309.04,-163 238.98,-163 238.98,-163"/>
<polygon fill="black" stroke="black" points="238.98,-159.5 228.98,-163 238.98,-166.5 238.98,-159.5"/>
</g>
<!-- PublicFileService -->
<g id="node5" class="node">
<title>PublicFileService</title>
<ellipse fill="#fdb462" stroke="black" cx="157" cy="-104" rx="79.89" ry="18"/>
<text text-anchor="middle" x="157" y="-99.8" font-family="Times,serif" font-size="14.00">PublicFileService</text>
</g>
<!-- PublicFileService&#45;&gt;FileModule -->
<g id="edge4" class="edge">
<title>PublicFileService&#45;&gt;FileModule</title>
<path fill="none" stroke="black" d="M188,-120.74C188,-120.74 188,-140.72 188,-140.72"/>
<polygon fill="black" stroke="black" points="184.5,-140.72 188,-150.72 191.5,-140.72 184.5,-140.72"/>
</g>
</g>
</svg>
