<?xml version="1.0" encoding="UTF-8" standalone="no"?>
<!DOCTYPE svg PUBLIC "-//W3C//DTD SVG 1.1//EN"
 "http://www.w3.org/Graphics/SVG/1.1/DTD/svg11.dtd">
<!-- Generated by graphviz version 2.47.0 (20210316.0004)
 -->
<!-- Title: dependencies Pages: 1 -->
<svg width="540pt" height="284pt"
 viewBox="0.00 0.00 540.00 284.00" xmlns="http://www.w3.org/2000/svg" xmlns:xlink="http://www.w3.org/1999/xlink">
<g id="graph0" class="graph" transform="scale(1 1) rotate(0) translate(4 280)">
<title>dependencies</title>
<polygon fill="white" stroke="transparent" points="-4,4 -4,-280 536,-280 536,4 -4,4"/>
<text text-anchor="start" x="245.01" y="-42.4" font-family="Times-12" font-weight="bold" font-size="14.00">Legend</text>
<polygon fill="#ffffb3" stroke="transparent" points="32,-10 32,-30 52,-30 52,-10 32,-10"/>
<text text-anchor="start" x="55.63" y="-15.4" font-family="Times-12" font-size="14.00"> &#160;Declarations</text>
<polygon fill="#8dd3c7" stroke="transparent" points="145,-10 145,-30 165,-30 165,-10 145,-10"/>
<text text-anchor="start" x="168.73" y="-15.4" font-family="Times-12" font-size="14.00"> &#160;Module</text>
<polygon fill="#80b1d3" stroke="transparent" points="231,-10 231,-30 251,-30 251,-10 231,-10"/>
<text text-anchor="start" x="254.78" y="-15.4" font-family="Times-12" font-size="14.00"> &#160;Bootstrap</text>
<polygon fill="#fdb462" stroke="transparent" points="328,-10 328,-30 348,-30 348,-10 328,-10"/>
<text text-anchor="start" x="351.67" y="-15.4" font-family="Times-12" font-size="14.00"> &#160;Providers</text>
<polygon fill="#fb8072" stroke="transparent" points="424,-10 424,-30 444,-30 444,-10 424,-10"/>
<text text-anchor="start" x="447.73" y="-15.4" font-family="Times-12" font-size="14.00"> &#160;Exports</text>
<g id="clust1" class="cluster">
<title>cluster_EmailModule</title>
<polygon fill="none" stroke="black" stroke-dasharray="1,5" points="8,-70 8,-268 524,-268 524,-70 8,-70"/>
</g>
<g id="clust3" class="cluster">
<title>cluster_EmailModule_imports</title>
<polygon fill="none" stroke="black" points="414,-78 414,-130 516,-130 516,-78 414,-78"/>
</g>
<g id="clust4" class="cluster">
<title>cluster_EmailModule_exports</title>
<polygon fill="none" stroke="black" points="147,-208 147,-260 446,-260 446,-208 147,-208"/>
</g>
<g id="clust6" class="cluster">
<title>cluster_EmailModule_providers</title>
<polygon fill="none" stroke="black" points="16,-78 16,-130 406,-130 406,-78 16,-78"/>
</g>
<!-- UserModule -->
<g id="node1" class="node">
<title>UserModule</title>
<polygon fill="#8dd3c7" stroke="black" points="507.98,-122 504.98,-126 483.98,-126 480.98,-122 422.02,-122 422.02,-86 507.98,-86 507.98,-122"/>
<text text-anchor="middle" x="465" y="-99.8" font-family="Times,serif" font-size="14.00">UserModule</text>
</g>
<!-- EmailModule -->
<g id="node2" class="node">
<title>EmailModule</title>
<polygon fill="#8dd3c7" stroke="black" points="329.49,-187 326.49,-191 305.49,-191 302.49,-187 236.51,-187 236.51,-151 329.49,-151 329.49,-187"/>
<text text-anchor="middle" x="283" y="-164.8" font-family="Times,serif" font-size="14.00">EmailModule</text>
</g>
<!-- UserModule&#45;&gt;EmailModule -->
<g id="edge1" class="edge">
<title>UserModule&#45;&gt;EmailModule</title>
<path fill="none" stroke="black" d="M430.09,-122.11C430.09,-141.34 430.09,-169 430.09,-169 430.09,-169 339.54,-169 339.54,-169"/>
<polygon fill="black" stroke="black" points="339.54,-165.5 329.54,-169 339.54,-172.5 339.54,-165.5"/>
</g>
<!-- EmailConfirmationService  -->
<g id="node3" class="node">
<title>EmailConfirmationService </title>
<polygon fill="#fb8072" stroke="black" points="438.35,-252 267.65,-252 267.65,-216 438.35,-216 438.35,-252"/>
<text text-anchor="middle" x="353" y="-229.8" font-family="Times,serif" font-size="14.00">EmailConfirmationService </text>
</g>
<!-- EmailModule&#45;&gt;EmailConfirmationService  -->
<g id="edge2" class="edge">
<title>EmailModule&#45;&gt;EmailConfirmationService </title>
<path fill="none" stroke="black" stroke-dasharray="5,2" d="M298.66,-187.11C298.66,-187.11 298.66,-205.99 298.66,-205.99"/>
<polygon fill="black" stroke="black" points="295.16,-205.99 298.66,-215.99 302.16,-205.99 295.16,-205.99"/>
</g>
<!-- EmailService  -->
<g id="node4" class="node">
<title>EmailService </title>
<polygon fill="#fb8072" stroke="black" points="249.42,-252 154.58,-252 154.58,-216 249.42,-216 249.42,-252"/>
<text text-anchor="middle" x="202" y="-229.8" font-family="Times,serif" font-size="14.00">EmailService </text>
</g>
<!-- EmailModule&#45;&gt;EmailService  -->
<g id="edge3" class="edge">
<title>EmailModule&#45;&gt;EmailService </title>
<path fill="none" stroke="black" stroke-dasharray="5,2" d="M242.98,-187.11C242.98,-187.11 242.98,-205.99 242.98,-205.99"/>
<polygon fill="black" stroke="black" points="239.48,-205.99 242.98,-215.99 246.48,-205.99 239.48,-205.99"/>
</g>
<!-- EmailConfirmationService -->
<g id="node5" class="node">
<title>EmailConfirmationService</title>
<ellipse fill="#fdb462" stroke="black" cx="283" cy="-104" rx="115.18" ry="18"/>
<text text-anchor="middle" x="283" y="-99.8" font-family="Times,serif" font-size="14.00">EmailConfirmationService</text>
</g>
<!-- EmailConfirmationService&#45;&gt;EmailModule -->
<g id="edge4" class="edge">
<title>EmailConfirmationService&#45;&gt;EmailModule</title>
<path fill="none" stroke="black" d="M283,-122.11C283,-122.11 283,-140.99 283,-140.99"/>
<polygon fill="black" stroke="black" points="279.5,-140.99 283,-150.99 286.5,-140.99 279.5,-140.99"/>
</g>
<!-- EmailService -->
<g id="node6" class="node">
<title>EmailService</title>
<ellipse fill="#fdb462" stroke="black" cx="87" cy="-104" rx="63.12" ry="18"/>
<text text-anchor="middle" x="87" y="-99.8" font-family="Times,serif" font-size="14.00">EmailService</text>
</g>
<!-- EmailService&#45;&gt;EmailModule -->
<g id="edge5" class="edge">
<title>EmailService&#45;&gt;EmailModule</title>
<path fill="none" stroke="black" d="M87,-122.11C87,-141.34 87,-169 87,-169 87,-169 226.05,-169 226.05,-169"/>
<polygon fill="black" stroke="black" points="226.05,-172.5 236.05,-169 226.05,-165.5 226.05,-172.5"/>
</g>
</g>
</svg>
