<?xml version="1.0" encoding="UTF-8" standalone="no"?>
<!DOCTYPE svg PUBLIC "-//W3C//DTD SVG 1.1//EN"
 "http://www.w3.org/Graphics/SVG/1.1/DTD/svg11.dtd">
<!-- Generated by graphviz version 2.47.0 (20210316.0004)
 -->
<!-- Title: dependencies Pages: 1 -->
<svg width="504pt" height="211pt"
 viewBox="0.00 0.00 504.00 211.00" xmlns="http://www.w3.org/2000/svg" xmlns:xlink="http://www.w3.org/1999/xlink">
<g id="graph0" class="graph" transform="scale(1 1) rotate(0) translate(4 207)">
<title>dependencies</title>
<polygon fill="white" stroke="transparent" points="-4,4 -4,-207 500,-207 500,4 -4,4"/>
<text text-anchor="start" x="227.01" y="-42.4" font-family="Times-12" font-weight="bold" font-size="14.00">Legend</text>
<polygon fill="#ffffb3" stroke="transparent" points="14,-10 14,-30 34,-30 34,-10 14,-10"/>
<text text-anchor="start" x="37.63" y="-15.4" font-family="Times-12" font-size="14.00"> &#160;Declarations</text>
<polygon fill="#8dd3c7" stroke="transparent" points="127,-10 127,-30 147,-30 147,-10 127,-10"/>
<text text-anchor="start" x="150.73" y="-15.4" font-family="Times-12" font-size="14.00"> &#160;Module</text>
<polygon fill="#80b1d3" stroke="transparent" points="213,-10 213,-30 233,-30 233,-10 213,-10"/>
<text text-anchor="start" x="236.78" y="-15.4" font-family="Times-12" font-size="14.00"> &#160;Bootstrap</text>
<polygon fill="#fdb462" stroke="transparent" points="310,-10 310,-30 330,-30 330,-10 310,-10"/>
<text text-anchor="start" x="333.67" y="-15.4" font-family="Times-12" font-size="14.00"> &#160;Providers</text>
<polygon fill="#fb8072" stroke="transparent" points="406,-10 406,-30 426,-30 426,-10 406,-10"/>
<text text-anchor="start" x="429.73" y="-15.4" font-family="Times-12" font-size="14.00"> &#160;Exports</text>
<g id="clust1" class="cluster">
<title>cluster_HealthModule</title>
<polygon fill="none" stroke="black" stroke-dasharray="1,5" points="48,-70 48,-195 448,-195 448,-70 48,-70"/>
</g>
<g id="clust3" class="cluster">
<title>cluster_HealthModule_imports</title>
<polygon fill="none" stroke="black" points="326,-78 326,-130 440,-130 440,-78 326,-78"/>
</g>
<g id="clust6" class="cluster">
<title>cluster_HealthModule_providers</title>
<polygon fill="none" stroke="black" points="56,-78 56,-130 318,-130 318,-78 56,-78"/>
</g>
<!-- SearchModule -->
<g id="node1" class="node">
<title>SearchModule</title>
<polygon fill="#8dd3c7" stroke="black" points="431.64,-122 428.64,-126 407.64,-126 404.64,-122 334.36,-122 334.36,-86 431.64,-86 431.64,-122"/>
<text text-anchor="middle" x="383" y="-99.8" font-family="Times,serif" font-size="14.00">SearchModule</text>
</g>
<!-- HealthModule -->
<g id="node2" class="node">
<title>HealthModule</title>
<polygon fill="#8dd3c7" stroke="black" points="333.37,-187 330.37,-191 309.37,-191 306.37,-187 236.63,-187 236.63,-151 333.37,-151 333.37,-187"/>
<text text-anchor="middle" x="285" y="-164.8" font-family="Times,serif" font-size="14.00">HealthModule</text>
</g>
<!-- SearchModule&#45;&gt;HealthModule -->
<g id="edge1" class="edge">
<title>SearchModule&#45;&gt;HealthModule</title>
<path fill="none" stroke="black" d="M334.24,-104C326.78,-104 321.5,-104 321.5,-104 321.5,-104 321.5,-140.89 321.5,-140.89"/>
<polygon fill="black" stroke="black" points="318,-140.89 321.5,-150.89 325,-140.89 318,-140.89"/>
</g>
<!-- ElasticsearchHealthIndicator -->
<g id="node3" class="node">
<title>ElasticsearchHealthIndicator</title>
<ellipse fill="#fdb462" stroke="black" cx="187" cy="-104" rx="122.64" ry="18"/>
<text text-anchor="middle" x="187" y="-99.8" font-family="Times,serif" font-size="14.00">ElasticsearchHealthIndicator</text>
</g>
<!-- ElasticsearchHealthIndicator&#45;&gt;HealthModule -->
<g id="edge2" class="edge">
<title>ElasticsearchHealthIndicator&#45;&gt;HealthModule</title>
<path fill="none" stroke="black" d="M273.07,-116.84C273.07,-116.84 273.07,-140.52 273.07,-140.52"/>
<polygon fill="black" stroke="black" points="269.57,-140.52 273.07,-150.52 276.57,-140.52 269.57,-140.52"/>
</g>
</g>
</svg>
