<?xml version="1.0" encoding="UTF-8" standalone="no"?>
<!DOCTYPE svg PUBLIC "-//W3C//DTD SVG 1.1//EN"
 "http://www.w3.org/Graphics/SVG/1.1/DTD/svg11.dtd">
<!-- Generated by graphviz version 2.47.0 (20210316.0004)
 -->
<!-- Title: dependencies Pages: 1 -->
<svg width="3079pt" height="431pt"
 viewBox="0.00 0.00 3079.00 431.00" xmlns="http://www.w3.org/2000/svg" xmlns:xlink="http://www.w3.org/1999/xlink">
<g id="graph0" class="graph" transform="scale(1 1) rotate(0) translate(4 427)">
<title>dependencies</title>
<polygon fill="white" stroke="transparent" points="-4,4 -4,-427 3075,-427 3075,4 -4,4"/>
<text text-anchor="start" x="1514.51" y="-42.4" font-family="Times-12" font-weight="bold" font-size="14.00">Legend</text>
<polygon fill="#ffffb3" stroke="transparent" points="1301.5,-10 1301.5,-30 1321.5,-30 1321.5,-10 1301.5,-10"/>
<text text-anchor="start" x="1325.13" y="-15.4" font-family="Times-12" font-size="14.00"> &#160;Declarations</text>
<polygon fill="#8dd3c7" stroke="transparent" points="1414.5,-10 1414.5,-30 1434.5,-30 1434.5,-10 1414.5,-10"/>
<text text-anchor="start" x="1438.23" y="-15.4" font-family="Times-12" font-size="14.00"> &#160;Module</text>
<polygon fill="#80b1d3" stroke="transparent" points="1500.5,-10 1500.5,-30 1520.5,-30 1520.5,-10 1500.5,-10"/>
<text text-anchor="start" x="1524.28" y="-15.4" font-family="Times-12" font-size="14.00"> &#160;Bootstrap</text>
<polygon fill="#fdb462" stroke="transparent" points="1597.5,-10 1597.5,-30 1617.5,-30 1617.5,-10 1597.5,-10"/>
<text text-anchor="start" x="1621.17" y="-15.4" font-family="Times-12" font-size="14.00"> &#160;Providers</text>
<polygon fill="#fb8072" stroke="transparent" points="1693.5,-10 1693.5,-30 1713.5,-30 1713.5,-10 1693.5,-10"/>
<text text-anchor="start" x="1717.23" y="-15.4" font-family="Times-12" font-size="14.00"> &#160;Exports</text>
<g id="clust1" class="cluster">
<title>cluster_AppModule</title>
<polygon fill="none" stroke="black" stroke-dasharray="1,5" points="762,-214 762,-415 1342,-415 1342,-214 762,-214"/>
</g>
<g id="clust3" class="cluster">
<title>cluster_AppModule_imports</title>
<polygon fill="none" stroke="black" points="770,-222 770,-350 1334,-350 1334,-222 770,-222"/>
</g>
<g id="clust7" class="cluster">
<title>cluster_AuthenticationModule</title>
<polygon fill="none" stroke="black" stroke-dasharray="1,5" points="1860,-214 1860,-282 2780,-282 2780,-214 1860,-214"/>
</g>
<g id="clust9" class="cluster">
<title>cluster_AuthenticationModule_imports</title>
<polygon fill="none" stroke="black" points="2664,-222 2664,-274 2772,-274 2772,-222 2664,-222"/>
</g>
<g id="clust12" class="cluster">
<title>cluster_AuthenticationModule_providers</title>
<polygon fill="none" stroke="black" points="1868,-222 1868,-274 2656,-274 2656,-222 1868,-222"/>
</g>
<g id="clust19" class="cluster">
<title>cluster_EmailModule</title>
<polygon fill="none" stroke="black" stroke-dasharray="1,5" points="2350,-290 2350,-358 3063,-358 3063,-290 2350,-290"/>
</g>
<g id="clust22" class="cluster">
<title>cluster_EmailModule_exports</title>
<polygon fill="none" stroke="black" points="2756,-298 2756,-350 3055,-350 3055,-298 2756,-298"/>
</g>
<g id="clust24" class="cluster">
<title>cluster_EmailModule_providers</title>
<polygon fill="none" stroke="black" points="2358,-298 2358,-350 2748,-350 2748,-298 2358,-298"/>
</g>
<g id="clust25" class="cluster">
<title>cluster_FileModule</title>
<polygon fill="none" stroke="black" stroke-dasharray="1,5" points="1478,-70 1478,-282 1852,-282 1852,-70 1478,-70"/>
</g>
<g id="clust28" class="cluster">
<title>cluster_FileModule_exports</title>
<polygon fill="none" stroke="black" points="1496,-222 1496,-274 1772,-274 1772,-222 1496,-222"/>
</g>
<g id="clust30" class="cluster">
<title>cluster_FileModule_providers</title>
<polygon fill="none" stroke="black" points="1486,-78 1486,-130 1844,-130 1844,-78 1486,-78"/>
</g>
<g id="clust31" class="cluster">
<title>cluster_HealthModule</title>
<polygon fill="none" stroke="black" stroke-dasharray="1,5" points="718,-138 718,-206 1118,-206 1118,-138 718,-138"/>
</g>
<g id="clust33" class="cluster">
<title>cluster_HealthModule_imports</title>
<polygon fill="none" stroke="black" points="996,-146 996,-198 1110,-198 1110,-146 996,-146"/>
</g>
<g id="clust36" class="cluster">
<title>cluster_HealthModule_providers</title>
<polygon fill="none" stroke="black" points="726,-146 726,-198 988,-198 988,-146 726,-146"/>
</g>
<g id="clust37" class="cluster">
<title>cluster_LoggerModule</title>
<polygon fill="none" stroke="black" stroke-dasharray="1,5" points="8,-138 8,-206 442,-206 442,-138 8,-138"/>
</g>
<g id="clust40" class="cluster">
<title>cluster_LoggerModule_exports</title>
<polygon fill="none" stroke="black" points="314,-146 314,-198 434,-198 434,-146 314,-146"/>
</g>
<g id="clust42" class="cluster">
<title>cluster_LoggerModule_providers</title>
<polygon fill="none" stroke="black" points="16,-146 16,-198 306,-198 306,-146 16,-146"/>
</g>
<g id="clust49" class="cluster">
<title>cluster_PostModule</title>
<polygon fill="none" stroke="black" stroke-dasharray="1,5" points="1126,-138 1126,-206 1470,-206 1470,-138 1126,-138"/>
</g>
<g id="clust54" class="cluster">
<title>cluster_PostModule_providers</title>
<polygon fill="none" stroke="black" points="1134,-146 1134,-198 1462,-198 1462,-146 1134,-146"/>
</g>
<g id="clust61" class="cluster">
<title>cluster_UserModule</title>
<polygon fill="none" stroke="black" stroke-dasharray="1,5" points="450,-138 450,-206 710,-206 710,-138 450,-138"/>
</g>
<g id="clust64" class="cluster">
<title>cluster_UserModule_exports</title>
<polygon fill="none" stroke="black" points="598,-146 598,-198 702,-198 702,-146 598,-146"/>
</g>
<g id="clust66" class="cluster">
<title>cluster_UserModule_providers</title>
<polygon fill="none" stroke="black" points="458,-146 458,-198 590,-198 590,-146 458,-146"/>
</g>
<!-- AuthenticationModule -->
<g id="node1" class="node">
<title>AuthenticationModule</title>
<polygon fill="#8dd3c7" stroke="black" points="1326.25,-342 1323.25,-346 1302.25,-346 1299.25,-342 1183.75,-342 1183.75,-306 1326.25,-306 1326.25,-342"/>
<text text-anchor="middle" x="1255" y="-319.8" font-family="Times,serif" font-size="14.00">AuthenticationModule</text>
</g>
<!-- AppModule -->
<g id="node7" class="node">
<title>AppModule</title>
<polygon fill="#8dd3c7" stroke="black" points="1152.66,-407 1149.66,-411 1128.66,-411 1125.66,-407 1069.34,-407 1069.34,-371 1152.66,-371 1152.66,-407"/>
<text text-anchor="middle" x="1111" y="-384.8" font-family="Times,serif" font-size="14.00">AppModule</text>
</g>
<!-- AuthenticationModule&#45;&gt;AppModule -->
<g id="edge1" class="edge">
<title>AuthenticationModule&#45;&gt;AppModule</title>
<path fill="none" stroke="black" d="M1183.54,-330C1163.23,-330 1146.51,-330 1146.51,-330 1146.51,-330 1146.51,-360.98 1146.51,-360.98"/>
<polygon fill="black" stroke="black" points="1143.01,-360.98 1146.51,-370.98 1150.01,-360.98 1143.01,-360.98"/>
</g>
<!-- DatabaseModule -->
<g id="node2" class="node">
<title>DatabaseModule</title>
<polygon fill="#8dd3c7" stroke="black" points="888.35,-266 885.35,-270 864.35,-270 861.35,-266 777.65,-266 777.65,-230 888.35,-230 888.35,-266"/>
<text text-anchor="middle" x="833" y="-243.8" font-family="Times,serif" font-size="14.00">DatabaseModule</text>
</g>
<!-- DatabaseModule&#45;&gt;AppModule -->
<g id="edge2" class="edge">
<title>DatabaseModule&#45;&gt;AppModule</title>
<path fill="none" stroke="black" d="M833,-266.03C833,-305.28 833,-395 833,-395 833,-395 1059.08,-395 1059.08,-395"/>
<polygon fill="black" stroke="black" points="1059.08,-398.5 1069.08,-395 1059.08,-391.5 1059.08,-398.5"/>
</g>
<!-- HealthModule -->
<g id="node3" class="node">
<title>HealthModule</title>
<polygon fill="#8dd3c7" stroke="black" points="1224.37,-266 1221.37,-270 1200.37,-270 1197.37,-266 1127.63,-266 1127.63,-230 1224.37,-230 1224.37,-266"/>
<text text-anchor="middle" x="1176" y="-243.8" font-family="Times,serif" font-size="14.00">HealthModule</text>
</g>
<!-- HealthModule&#45;&gt;AppModule -->
<g id="edge3" class="edge">
<title>HealthModule&#45;&gt;AppModule</title>
<path fill="none" stroke="black" d="M1133.88,-266.14C1133.88,-266.14 1133.88,-360.93 1133.88,-360.93"/>
<polygon fill="black" stroke="black" points="1130.38,-360.92 1133.88,-370.93 1137.38,-360.93 1130.38,-360.92"/>
</g>
<!-- LoggerModule -->
<g id="node4" class="node">
<title>LoggerModule</title>
<polygon fill="#8dd3c7" stroke="black" points="1005.98,-266 1002.98,-270 981.98,-270 978.98,-266 906.02,-266 906.02,-230 1005.98,-230 1005.98,-266"/>
<text text-anchor="middle" x="956" y="-243.8" font-family="Times,serif" font-size="14.00">LoggerModule</text>
</g>
<!-- LoggerModule&#45;&gt;AppModule -->
<g id="edge4" class="edge">
<title>LoggerModule&#45;&gt;AppModule</title>
<path fill="none" stroke="black" d="M956,-266.21C956,-303.06 956,-383 956,-383 956,-383 1059.05,-383 1059.05,-383"/>
<polygon fill="black" stroke="black" points="1059.05,-386.5 1069.05,-383 1059.05,-379.5 1059.05,-386.5"/>
</g>
<!-- CustomLogger  -->
<g id="node24" class="node">
<title>CustomLogger </title>
<polygon fill="#fb8072" stroke="black" points="425.99,-190 322.01,-190 322.01,-154 425.99,-154 425.99,-190"/>
<text text-anchor="middle" x="374" y="-167.8" font-family="Times,serif" font-size="14.00">CustomLogger </text>
</g>
<!-- LoggerModule&#45;&gt;CustomLogger  -->
<g id="edge24" class="edge">
<title>LoggerModule&#45;&gt;CustomLogger </title>
<path fill="none" stroke="black" stroke-dasharray="5,2" d="M950.15,-229.86C950.15,-223.54 950.15,-218 950.15,-218 950.15,-218 374,-218 374,-218 374,-218 374,-200.18 374,-200.18"/>
<polygon fill="black" stroke="black" points="377.5,-200.18 374,-190.18 370.5,-200.18 377.5,-200.18"/>
</g>
<!-- PostModule -->
<g id="node5" class="node">
<title>PostModule</title>
<polygon fill="#8dd3c7" stroke="black" points="1325.67,-266 1322.67,-270 1301.67,-270 1298.67,-266 1242.33,-266 1242.33,-230 1325.67,-230 1325.67,-266"/>
<text text-anchor="middle" x="1284" y="-243.8" font-family="Times,serif" font-size="14.00">PostModule</text>
</g>
<!-- PostModule&#45;&gt;AppModule -->
<g id="edge5" class="edge">
<title>PostModule&#45;&gt;AppModule</title>
<path fill="none" stroke="black" d="M1263.08,-266.24C1263.08,-273.43 1263.08,-280 1263.08,-280 1263.08,-280 1140.2,-280 1140.2,-280 1140.2,-280 1140.2,-360.51 1140.2,-360.51"/>
<polygon fill="black" stroke="black" points="1136.7,-360.51 1140.2,-370.51 1143.7,-360.51 1136.7,-360.51"/>
</g>
<!-- UserModule -->
<g id="node6" class="node">
<title>UserModule</title>
<polygon fill="#8dd3c7" stroke="black" points="1109.98,-266 1106.98,-270 1085.98,-270 1082.98,-266 1024.02,-266 1024.02,-230 1109.98,-230 1109.98,-266"/>
<text text-anchor="middle" x="1067" y="-243.8" font-family="Times,serif" font-size="14.00">UserModule</text>
</g>
<!-- UserModule&#45;&gt;AuthenticationModule -->
<g id="edge8" class="edge">
<title>UserModule&#45;&gt;AuthenticationModule</title>
<path fill="none" stroke="black" d="M1099.78,-266.03C1099.78,-286.77 1099.78,-318 1099.78,-318 1099.78,-318 1173.3,-318 1173.3,-318"/>
<polygon fill="black" stroke="black" points="1173.3,-321.5 1183.3,-318 1173.3,-314.5 1173.3,-321.5"/>
</g>
<!-- UserModule&#45;&gt;AppModule -->
<g id="edge6" class="edge">
<title>UserModule&#45;&gt;AppModule</title>
<path fill="none" stroke="black" d="M1089.58,-266.14C1089.58,-266.14 1089.58,-360.93 1089.58,-360.93"/>
<polygon fill="black" stroke="black" points="1086.08,-360.92 1089.58,-370.93 1093.08,-360.93 1086.08,-360.92"/>
</g>
<!-- EmailModule -->
<g id="node8" class="node">
<title>EmailModule</title>
<polygon fill="#8dd3c7" stroke="black" points="2764.49,-266 2761.49,-270 2740.49,-270 2737.49,-266 2671.51,-266 2671.51,-230 2764.49,-230 2764.49,-266"/>
<text text-anchor="middle" x="2718" y="-243.8" font-family="Times,serif" font-size="14.00">EmailModule</text>
</g>
<!-- UserModule&#45;&gt;EmailModule -->
<g id="edge13" class="edge">
<title>UserModule&#45;&gt;EmailModule</title>
<path fill="none" stroke="black" d="M1079.38,-266.17C1079.38,-270.05 1079.38,-273 1079.38,-273 1079.38,-273 2685.22,-273 2685.22,-273 2685.22,-273 2685.22,-272.32 2685.22,-272.32"/>
<polygon fill="black" stroke="black" points="2688.72,-276.17 2685.22,-266.17 2681.72,-276.17 2688.72,-276.17"/>
</g>
<!-- UserService  -->
<g id="node29" class="node">
<title>UserService </title>
<polygon fill="#fb8072" stroke="black" points="693.9,-190 606.1,-190 606.1,-154 693.9,-154 693.9,-190"/>
<text text-anchor="middle" x="650" y="-167.8" font-family="Times,serif" font-size="14.00">UserService </text>
</g>
<!-- UserModule&#45;&gt;UserService  -->
<g id="edge32" class="edge">
<title>UserModule&#45;&gt;UserService </title>
<path fill="none" stroke="black" stroke-dasharray="5,2" d="M1062.92,-229.89C1062.92,-220.1 1062.92,-210 1062.92,-210 1062.92,-210 650,-210 650,-210 650,-210 650,-200.11 650,-200.11"/>
<polygon fill="black" stroke="black" points="653.5,-200.11 650,-190.11 646.5,-200.11 653.5,-200.11"/>
</g>
<!-- EmailModule&#45;&gt;AuthenticationModule -->
<g id="edge7" class="edge">
<title>EmailModule&#45;&gt;AuthenticationModule</title>
<path fill="none" stroke="black" d="M2698.94,-266.04C2698.94,-278.56 2698.94,-293 2698.94,-293 2698.94,-293 1304.92,-293 1304.92,-293 1304.92,-293 1304.92,-295.97 1304.92,-295.97"/>
<polygon fill="black" stroke="black" points="1301.42,-295.97 1304.92,-305.97 1308.42,-295.97 1301.42,-295.97"/>
</g>
<!-- EmailModule&#45;&gt;PostModule -->
<g id="edge27" class="edge">
<title>EmailModule&#45;&gt;PostModule</title>
<path fill="none" stroke="black" d="M2718,-229.95C2718,-215.63 2718,-198 2718,-198 2718,-198 1310.67,-198 1310.67,-198 1310.67,-198 1310.67,-219.95 1310.67,-219.95"/>
<polygon fill="black" stroke="black" points="1307.17,-219.95 1310.67,-229.95 1314.17,-219.95 1307.17,-219.95"/>
</g>
<!-- EmailConfirmationService  -->
<g id="node13" class="node">
<title>EmailConfirmationService </title>
<polygon fill="#fb8072" stroke="black" points="3047.35,-342 2876.65,-342 2876.65,-306 3047.35,-306 3047.35,-342"/>
<text text-anchor="middle" x="2962" y="-319.8" font-family="Times,serif" font-size="14.00">EmailConfirmationService </text>
</g>
<!-- EmailModule&#45;&gt;EmailConfirmationService  -->
<g id="edge14" class="edge">
<title>EmailModule&#45;&gt;EmailConfirmationService </title>
<path fill="none" stroke="black" stroke-dasharray="5,2" d="M2764.76,-248C2835.61,-248 2962,-248 2962,-248 2962,-248 2962,-295.99 2962,-295.99"/>
<polygon fill="black" stroke="black" points="2958.5,-295.99 2962,-305.99 2965.5,-295.99 2958.5,-295.99"/>
</g>
<!-- EmailService  -->
<g id="node14" class="node">
<title>EmailService </title>
<polygon fill="#fb8072" stroke="black" points="2858.42,-342 2763.58,-342 2763.58,-306 2858.42,-306 2858.42,-342"/>
<text text-anchor="middle" x="2811" y="-319.8" font-family="Times,serif" font-size="14.00">EmailService </text>
</g>
<!-- EmailModule&#45;&gt;EmailService  -->
<g id="edge15" class="edge">
<title>EmailModule&#45;&gt;EmailService </title>
<path fill="none" stroke="black" stroke-dasharray="5,2" d="M2751.82,-266.01C2751.82,-288.49 2751.82,-324 2751.82,-324 2751.82,-324 2753.51,-324 2753.51,-324"/>
<polygon fill="black" stroke="black" points="2753.51,-327.5 2763.51,-324 2753.51,-320.5 2753.51,-327.5"/>
</g>
<!-- AuthenticationService -->
<g id="node9" class="node">
<title>AuthenticationService</title>
<ellipse fill="#fdb462" stroke="black" cx="2551" cy="-248" rx="97.27" ry="18"/>
<text text-anchor="middle" x="2551" y="-243.8" font-family="Times,serif" font-size="14.00">AuthenticationService</text>
</g>
<!-- AuthenticationService&#45;&gt;AuthenticationModule -->
<g id="edge9" class="edge">
<title>AuthenticationService&#45;&gt;AuthenticationModule</title>
<path fill="none" stroke="black" d="M2466.43,-257.2C2466.43,-268.44 2466.43,-286 2466.43,-286 2466.43,-286 1284,-286 1284,-286 1284,-286 1284,-295.89 1284,-295.89"/>
<polygon fill="black" stroke="black" points="1280.5,-295.89 1284,-305.89 1287.5,-295.89 1280.5,-295.89"/>
</g>
<!-- JwtStrategy -->
<g id="node10" class="node">
<title>JwtStrategy</title>
<ellipse fill="#fdb462" stroke="black" cx="2379" cy="-248" rx="56.76" ry="18"/>
<text text-anchor="middle" x="2379" y="-243.8" font-family="Times,serif" font-size="14.00">JwtStrategy</text>
</g>
<!-- JwtStrategy&#45;&gt;AuthenticationModule -->
<g id="edge10" class="edge">
<title>JwtStrategy&#45;&gt;AuthenticationModule</title>
<path fill="none" stroke="black" d="M2344.16,-262.42C2344.16,-286.67 2344.16,-333 2344.16,-333 2344.16,-333 1336.46,-333 1336.46,-333"/>
<polygon fill="black" stroke="black" points="1336.46,-329.5 1326.46,-333 1336.46,-336.5 1336.46,-329.5"/>
</g>
<!-- LocalStrategy -->
<g id="node11" class="node">
<title>LocalStrategy</title>
<ellipse fill="#fdb462" stroke="black" cx="2239" cy="-248" rx="65.41" ry="18"/>
<text text-anchor="middle" x="2239" y="-243.8" font-family="Times,serif" font-size="14.00">LocalStrategy</text>
</g>
<!-- LocalStrategy&#45;&gt;AuthenticationModule -->
<g id="edge11" class="edge">
<title>LocalStrategy&#45;&gt;AuthenticationModule</title>
<path fill="none" stroke="black" d="M2239,-266.01C2239,-288.49 2239,-324 2239,-324 2239,-324 1336.56,-324 1336.56,-324"/>
<polygon fill="black" stroke="black" points="1336.56,-320.5 1326.56,-324 1336.56,-327.5 1336.56,-320.5"/>
</g>
<!-- TwoFactorAuthenticationService -->
<g id="node12" class="node">
<title>TwoFactorAuthenticationService</title>
<ellipse fill="#fdb462" stroke="black" cx="2016" cy="-248" rx="139.5" ry="18"/>
<text text-anchor="middle" x="2016" y="-243.8" font-family="Times,serif" font-size="14.00">TwoFactorAuthenticationService</text>
</g>
<!-- TwoFactorAuthenticationService&#45;&gt;AuthenticationModule -->
<g id="edge12" class="edge">
<title>TwoFactorAuthenticationService&#45;&gt;AuthenticationModule</title>
<path fill="none" stroke="black" d="M2016,-266.31C2016,-286.15 2016,-315 2016,-315 2016,-315 1336.59,-315 1336.59,-315"/>
<polygon fill="black" stroke="black" points="1336.59,-311.5 1326.59,-315 1336.59,-318.5 1336.59,-311.5"/>
</g>
<!-- EmailConfirmationService -->
<g id="node15" class="node">
<title>EmailConfirmationService</title>
<ellipse fill="#fdb462" stroke="black" cx="2625" cy="-324" rx="115.18" ry="18"/>
<text text-anchor="middle" x="2625" y="-319.8" font-family="Times,serif" font-size="14.00">EmailConfirmationService</text>
</g>
<!-- EmailConfirmationService&#45;&gt;EmailModule -->
<g id="edge16" class="edge">
<title>EmailConfirmationService&#45;&gt;EmailModule</title>
<path fill="none" stroke="black" d="M2726.37,-315.28C2726.37,-315.28 2726.37,-276.12 2726.37,-276.12"/>
<polygon fill="black" stroke="black" points="2729.87,-276.12 2726.37,-266.12 2722.87,-276.12 2729.87,-276.12"/>
</g>
<!-- EmailService -->
<g id="node16" class="node">
<title>EmailService</title>
<ellipse fill="#fdb462" stroke="black" cx="2429" cy="-324" rx="63.12" ry="18"/>
<text text-anchor="middle" x="2429" y="-319.8" font-family="Times,serif" font-size="14.00">EmailService</text>
</g>
<!-- EmailService&#45;&gt;EmailModule -->
<g id="edge17" class="edge">
<title>EmailService&#45;&gt;EmailModule</title>
<path fill="none" stroke="black" d="M2479.24,-312.84C2479.24,-306.58 2479.24,-300 2479.24,-300 2479.24,-300 2712.66,-300 2712.66,-300 2712.66,-300 2712.66,-276.19 2712.66,-276.19"/>
<polygon fill="black" stroke="black" points="2716.16,-276.19 2712.66,-266.19 2709.16,-276.19 2716.16,-276.19"/>
</g>
<!-- PrivateFileService  -->
<g id="node17" class="node">
<title>PrivateFileService </title>
<polygon fill="#fb8072" stroke="black" points="1764.41,-266 1641.59,-266 1641.59,-230 1764.41,-230 1764.41,-266"/>
<text text-anchor="middle" x="1703" y="-243.8" font-family="Times,serif" font-size="14.00">PrivateFileService </text>
</g>
<!-- PublicFileService  -->
<g id="node18" class="node">
<title>PublicFileService </title>
<polygon fill="#fb8072" stroke="black" points="1623.53,-266 1504.47,-266 1504.47,-230 1623.53,-230 1623.53,-266"/>
<text text-anchor="middle" x="1564" y="-243.8" font-family="Times,serif" font-size="14.00">PublicFileService </text>
</g>
<!-- FileModule -->
<g id="node19" class="node">
<title>FileModule</title>
<polygon fill="#8dd3c7" stroke="black" points="1614.83,-190 1611.83,-194 1590.83,-194 1587.83,-190 1533.17,-190 1533.17,-154 1614.83,-154 1614.83,-190"/>
<text text-anchor="middle" x="1574" y="-167.8" font-family="Times,serif" font-size="14.00">FileModule</text>
</g>
<!-- FileModule&#45;&gt;UserModule -->
<g id="edge31" class="edge">
<title>FileModule&#45;&gt;UserModule</title>
<path fill="none" stroke="black" d="M1560.45,-190.17C1560.45,-192.45 1560.45,-194 1560.45,-194 1560.45,-194 1105.9,-194 1105.9,-194 1105.9,-194 1105.9,-219.72 1105.9,-219.72"/>
<polygon fill="black" stroke="black" points="1102.4,-219.72 1105.9,-229.72 1109.4,-219.72 1102.4,-219.72"/>
</g>
<!-- FileModule&#45;&gt;PrivateFileService  -->
<g id="edge18" class="edge">
<title>FileModule&#45;&gt;PrivateFileService </title>
<path fill="none" stroke="black" stroke-dasharray="5,2" d="M1614.69,-178C1631.71,-178 1647.62,-178 1647.62,-178 1647.62,-178 1647.62,-219.97 1647.62,-219.97"/>
<polygon fill="black" stroke="black" points="1644.12,-219.97 1647.62,-229.97 1651.12,-219.97 1644.12,-219.97"/>
</g>
<!-- FileModule&#45;&gt;PublicFileService  -->
<g id="edge19" class="edge">
<title>FileModule&#45;&gt;PublicFileService </title>
<path fill="none" stroke="black" stroke-dasharray="5,2" d="M1587.55,-190.01C1587.55,-190.01 1587.55,-219.85 1587.55,-219.85"/>
<polygon fill="black" stroke="black" points="1584.05,-219.85 1587.55,-229.85 1591.05,-219.85 1584.05,-219.85"/>
</g>
<!-- PrivateFileService -->
<g id="node20" class="node">
<title>PrivateFileService</title>
<ellipse fill="#fdb462" stroke="black" cx="1754" cy="-104" rx="82.23" ry="18"/>
<text text-anchor="middle" x="1754" y="-99.8" font-family="Times,serif" font-size="14.00">PrivateFileService</text>
</g>
<!-- PrivateFileService&#45;&gt;FileModule -->
<g id="edge20" class="edge">
<title>PrivateFileService&#45;&gt;FileModule</title>
<path fill="none" stroke="black" d="M1718.04,-120.29C1718.04,-138.66 1718.04,-166 1718.04,-166 1718.04,-166 1624.89,-166 1624.89,-166"/>
<polygon fill="black" stroke="black" points="1624.89,-162.5 1614.89,-166 1624.89,-169.5 1624.89,-162.5"/>
</g>
<!-- PublicFileService -->
<g id="node21" class="node">
<title>PublicFileService</title>
<ellipse fill="#fdb462" stroke="black" cx="1574" cy="-104" rx="79.89" ry="18"/>
<text text-anchor="middle" x="1574" y="-99.8" font-family="Times,serif" font-size="14.00">PublicFileService</text>
</g>
<!-- PublicFileService&#45;&gt;FileModule -->
<g id="edge21" class="edge">
<title>PublicFileService&#45;&gt;FileModule</title>
<path fill="none" stroke="black" d="M1574,-122.22C1574,-122.22 1574,-143.73 1574,-143.73"/>
<polygon fill="black" stroke="black" points="1570.5,-143.73 1574,-153.73 1577.5,-143.73 1570.5,-143.73"/>
</g>
<!-- SearchModule -->
<g id="node22" class="node">
<title>SearchModule</title>
<polygon fill="#8dd3c7" stroke="black" points="1101.64,-190 1098.64,-194 1077.64,-194 1074.64,-190 1004.36,-190 1004.36,-154 1101.64,-154 1101.64,-190"/>
<text text-anchor="middle" x="1053" y="-167.8" font-family="Times,serif" font-size="14.00">SearchModule</text>
</g>
<!-- SearchModule&#45;&gt;HealthModule -->
<g id="edge22" class="edge">
<title>SearchModule&#45;&gt;HealthModule</title>
<path fill="none" stroke="black" d="M1101.82,-172C1120.29,-172 1136.93,-172 1136.93,-172 1136.93,-172 1136.93,-219.99 1136.93,-219.99"/>
<polygon fill="black" stroke="black" points="1133.43,-219.99 1136.93,-229.99 1140.43,-219.99 1133.43,-219.99"/>
</g>
<!-- SearchModule&#45;&gt;PostModule -->
<g id="edge28" class="edge">
<title>SearchModule&#45;&gt;PostModule</title>
<path fill="none" stroke="black" d="M1082.37,-190.14C1082.37,-196.46 1082.37,-202 1082.37,-202 1082.37,-202 1248.91,-202 1248.91,-202 1248.91,-202 1248.91,-219.82 1248.91,-219.82"/>
<polygon fill="black" stroke="black" points="1245.41,-219.82 1248.91,-229.82 1252.41,-219.82 1245.41,-219.82"/>
</g>
<!-- ElasticsearchHealthIndicator -->
<g id="node23" class="node">
<title>ElasticsearchHealthIndicator</title>
<ellipse fill="#fdb462" stroke="black" cx="857" cy="-172" rx="122.64" ry="18"/>
<text text-anchor="middle" x="857" y="-167.8" font-family="Times,serif" font-size="14.00">ElasticsearchHealthIndicator</text>
</g>
<!-- ElasticsearchHealthIndicator&#45;&gt;HealthModule -->
<g id="edge23" class="edge">
<title>ElasticsearchHealthIndicator&#45;&gt;HealthModule</title>
<path fill="none" stroke="black" d="M964.86,-180.58C964.86,-190.65 964.86,-206 964.86,-206 964.86,-206 1132.25,-206 1132.25,-206 1132.25,-206 1132.25,-219.94 1132.25,-219.94"/>
<polygon fill="black" stroke="black" points="1128.75,-219.94 1132.25,-229.94 1135.75,-219.94 1128.75,-219.94"/>
</g>
<!-- CustomLogger -->
<g id="node25" class="node">
<title>CustomLogger</title>
<ellipse fill="#fdb462" stroke="black" cx="229" cy="-172" rx="68.94" ry="18"/>
<text text-anchor="middle" x="229" y="-167.8" font-family="Times,serif" font-size="14.00">CustomLogger</text>
</g>
<!-- CustomLogger&#45;&gt;LoggerModule -->
<g id="edge25" class="edge">
<title>CustomLogger&#45;&gt;LoggerModule</title>
<path fill="none" stroke="black" d="M229,-190.05C229,-204.37 229,-222 229,-222 229,-222 935.44,-222 935.44,-222 935.44,-222 935.44,-222.79 935.44,-222.79"/>
<polygon fill="black" stroke="black" points="931.94,-219.94 935.44,-229.94 938.94,-219.94 931.94,-219.94"/>
</g>
<!-- LogsService -->
<g id="node26" class="node">
<title>LogsService</title>
<ellipse fill="#fdb462" stroke="black" cx="83" cy="-172" rx="59.11" ry="18"/>
<text text-anchor="middle" x="83" y="-167.8" font-family="Times,serif" font-size="14.00">LogsService</text>
</g>
<!-- LogsService&#45;&gt;LoggerModule -->
<g id="edge26" class="edge">
<title>LogsService&#45;&gt;LoggerModule</title>
<path fill="none" stroke="black" d="M83,-190.28C83,-205.95 83,-226 83,-226 83,-226 920.72,-226 920.72,-226 920.72,-226 920.72,-226.38 920.72,-226.38"/>
<polygon fill="black" stroke="black" points="917.22,-219.83 920.72,-229.83 924.22,-219.83 917.22,-219.83"/>
</g>
<!-- PostsSearchService -->
<g id="node27" class="node">
<title>PostsSearchService</title>
<ellipse fill="#fdb462" stroke="black" cx="1367" cy="-172" rx="86.81" ry="18"/>
<text text-anchor="middle" x="1367" y="-167.8" font-family="Times,serif" font-size="14.00">PostsSearchService</text>
</g>
<!-- PostsSearchService&#45;&gt;PostModule -->
<g id="edge29" class="edge">
<title>PostsSearchService&#45;&gt;PostModule</title>
<path fill="none" stroke="black" d="M1295.51,-182.25C1295.51,-182.25 1295.51,-219.77 1295.51,-219.77"/>
<polygon fill="black" stroke="black" points="1292.01,-219.77 1295.51,-229.77 1299.01,-219.77 1292.01,-219.77"/>
</g>
<!-- PostsService -->
<g id="node28" class="node">
<title>PostsService</title>
<ellipse fill="#fdb462" stroke="black" cx="1202" cy="-172" rx="60.27" ry="18"/>
<text text-anchor="middle" x="1202" y="-167.8" font-family="Times,serif" font-size="14.00">PostsService</text>
</g>
<!-- PostsService&#45;&gt;PostModule -->
<g id="edge30" class="edge">
<title>PostsService&#45;&gt;PostModule</title>
<path fill="none" stroke="black" d="M1255.64,-180.42C1255.64,-180.42 1255.64,-219.73 1255.64,-219.73"/>
<polygon fill="black" stroke="black" points="1252.14,-219.73 1255.64,-229.73 1259.14,-219.73 1252.14,-219.73"/>
</g>
<!-- UserService -->
<g id="node30" class="node">
<title>UserService</title>
<ellipse fill="#fdb462" stroke="black" cx="524" cy="-172" rx="58.44" ry="18"/>
<text text-anchor="middle" x="524" y="-167.8" font-family="Times,serif" font-size="14.00">UserService</text>
</g>
<!-- UserService&#45;&gt;UserModule -->
<g id="edge33" class="edge">
<title>UserService&#45;&gt;UserModule</title>
<path fill="none" stroke="black" d="M524,-190.06C524,-201.44 524,-214 524,-214 524,-214 1043.46,-214 1043.46,-214 1043.46,-214 1043.46,-219.81 1043.46,-219.81"/>
<polygon fill="black" stroke="black" points="1039.96,-219.81 1043.46,-229.81 1046.96,-219.81 1039.96,-219.81"/>
</g>
</g>
</svg>
